<?xml version="1.0" encoding="UTF-8"?>
<svg version="1.1" xmlns="http://www.w3.org/2000/svg" width="247" height="146">
<path d="M0 0 C3.0016006 -0.38318306 5.05488663 -0.61589141 7.6484375 1.07421875 C9.69576175 3.99135995 9.52616443 6.67038454 9.6875 10.1875 C9.78611328 12.09595703 9.78611328 12.09595703 9.88671875 14.04296875 C9.92410156 15.01878906 9.96148437 15.99460937 10 17 C12.97 17 15.94 17 19 17 C18.34 15.68 17.68 14.36 17 13 C16.47064057 6.96530249 16.47064057 6.96530249 18.0625 4.0625 C21.15493758 2.36664713 23.55514741 2.56939343 27 3 C29.62541413 5.20196024 29.9445448 6.61973579 30.4375 10 C29.90883564 13.62512706 28.79352638 14.73025981 26 17 C26.48605713 17.64855957 26.97211426 18.29711914 27.47290039 18.96533203 C29.42812404 22.85077246 29.44952792 26.30231408 29.43359375 30.5546875 C29.4388356 31.37446075 29.44407745 32.19423401 29.44947815 33.03884888 C29.45588465 34.76856355 29.45457912 36.49832186 29.44604492 38.22802734 C29.43754891 40.85984863 29.46629035 43.48948739 29.49804688 46.12109375 C29.49965957 47.80729102 29.49908005 49.4934921 29.49609375 51.1796875 C29.51294472 52.34877151 29.51294472 52.34877151 29.53013611 53.54147339 C29.45956895 59.13904377 28.17623394 62.37386498 25 67 C21.33297182 70.48814876 18.42603649 71.29279901 13.5 71.5 C8.60042246 71.31360303 5.72458542 70.35212688 2 67 C-1.9407599 62.51568701 -2.12151303 58.77069126 -2.09765625 52.92578125 C-2.0962413 52.2419487 -2.09482635 51.55811615 -2.09336853 50.8535614 C-2.08777876 48.67316278 -2.07522822 46.49286749 -2.0625 44.3125 C-2.05748367 42.83268378 -2.052921 41.35286594 -2.04882812 39.87304688 C-2.03781271 36.24866443 -2.02055512 32.6243423 -2 29 C-3.918125 29.03673828 -3.918125 29.03673828 -5.875 29.07421875 C-9.75 29.1484375 -9.75 29.1484375 -12 27.8125 C-13.36703913 25.33474158 -13.41826612 23.78844081 -13 21 C-12 19.1875 -12 19.1875 -10 18 C-7.28125957 17.75332927 -4.74116148 17.86518878 -2 18 C-2.02320312 16.95199219 -2.04640625 15.90398438 -2.0703125 14.82421875 C-2.08907303 13.44531963 -2.10727293 12.0664128 -2.125 10.6875 C-2.14175781 9.99720703 -2.15851563 9.30691406 -2.17578125 8.59570312 C-2.21217794 4.82864604 -2.14378864 3.21568296 0 0 Z M9 29 C8.95060885 33.09338652 8.91428499 37.18665798 8.89013672 41.28027344 C8.88007123 42.67320781 8.86641766 44.06612102 8.84912109 45.45898438 C8.8248978 47.4595436 8.81459186 49.46025615 8.8046875 51.4609375 C8.79421387 52.66540527 8.78374023 53.86987305 8.77294922 55.11083984 C8.69539186 58.12841495 8.69539186 58.12841495 11 60 C13.58354218 60.16687448 13.58354218 60.16687448 16 60 C18.14517925 56.52964175 18.17412457 53.95214122 17.9765625 49.921875 C17.89921875 48.18164062 17.89921875 48.18164062 17.8203125 46.40625 C17.75585938 45.1996875 17.69140625 43.993125 17.625 42.75 C17.56828125 41.52796875 17.5115625 40.3059375 17.453125 39.046875 C17.31173944 36.0306498 17.16033265 33.0152677 17 30 C14.36 29.67 11.72 29.34 9 29 Z " fill="#FCFDFD" transform="translate(111,43)"/>
<path d="M0 0 C3.0625 0.3125 3.0625 0.3125 4.72412109 1.53320312 C6.44961419 3.82714579 6.47214064 5.2405936 6.5390625 8.09375 C6.57 9.01800781 6.6009375 9.94226563 6.6328125 10.89453125 C6.65988281 12.33892578 6.65988281 12.33892578 6.6875 13.8125 C6.73854019 15.71885114 6.79307572 17.62511279 6.8515625 19.53125 C6.86912598 20.37623047 6.88668945 21.22121094 6.90478516 22.09179688 C6.98250077 24.48621371 6.98250077 24.48621371 8.0625 27.3125 C8.701875 26.9825 9.34125 26.6525 10 26.3125 C16.66431721 24.13639642 22.65689279 24.82190239 28.91796875 27.9140625 C34.81122727 31.75702525 38.18652738 36.59945108 40.0625 43.3125 C40.42015252 47.96261864 40.3921173 52.61044836 40.37817383 57.2722168 C40.37499397 59.50423144 40.39858036 61.73494382 40.42382812 63.96679688 C40.42609949 65.38801917 40.42680537 66.80924501 40.42578125 68.23046875 C40.42876221 69.51719482 40.43174316 70.8039209 40.43481445 72.12963867 C40.0625 75.3125 40.0625 75.3125 38.66088867 77.2043457 C36.72176878 78.54872713 35.4211085 79.09808105 33.0625 79.3125 C30.39643981 78.32224907 29.34860235 77.8847047 28.0625 75.3125 C27.9192071 73.03643255 27.83594242 70.75648018 27.78125 68.4765625 C27.75363586 67.4629213 27.75363586 67.4629213 27.72546387 66.42880249 C27.66668165 64.26512398 27.61390622 62.10136555 27.5625 59.9375 C27.49466873 57.09619401 27.42092924 54.25512813 27.34375 51.4140625 C27.31345703 50.14900879 27.28316406 48.88395508 27.25195312 47.58056641 C27.03963268 43.86049172 27.03963268 43.86049172 26.0625 40.3125 C22.14827647 37.94024331 17.52336328 37.40230365 13.0625 38.3125 C10.37144802 40.48824416 8.60717072 42.22315856 7.0625 45.3125 C6.96732398 47.5166733 6.93061016 49.7234776 6.921875 51.9296875 C6.90354713 53.27215239 6.88397683 54.61460078 6.86328125 55.95703125 C6.83431278 58.07271143 6.81250004 60.18733126 6.81201172 62.30322266 C6.80867252 64.34633349 6.77410705 66.38700167 6.734375 68.4296875 C6.7250293 69.65284668 6.71568359 70.87600586 6.70605469 72.13623047 C6.0625 75.3125 6.0625 75.3125 3.52050781 77.74267578 C2.70936523 78.26071777 1.89822266 78.77875977 1.0625 79.3125 C-3.8125 77.4375 -3.8125 77.4375 -4.9375 76.3125 C-5.04248905 74.02280896 -5.07607559 71.72983118 -5.08276367 69.43774414 C-5.08780159 68.35969765 -5.08780159 68.35969765 -5.09294128 67.25987244 C-5.10247839 64.8724497 -5.10439577 62.48509688 -5.10546875 60.09765625 C-5.10867943 58.44477814 -5.11204335 56.79190032 -5.11555481 55.13902283 C-5.121553 51.66957948 -5.12339401 48.20016106 -5.12280273 44.73071289 C-5.12270108 40.27712833 -5.13635402 35.82370307 -5.15357494 31.37015629 C-5.16467397 27.95502483 -5.16672259 24.53993213 -5.16619301 21.12478447 C-5.16737627 19.48248177 -5.17181731 17.84017818 -5.17952538 16.19789314 C-5.18928313 13.90403093 -5.18646414 11.61051779 -5.18041992 9.31665039 C-5.18184494 8.00950577 -5.18326996 6.70236115 -5.18473816 5.35560608 C-4.85052733 1.24200563 -4.10743628 0.43696131 0 0 Z " fill="#FCFDFD" transform="translate(188.9375,34.6875)"/>
<path d="M0 0 C6.08152189 2.70696312 10.35023389 6.18113134 13.41015625 12.15625 C15.80558027 18.45139163 15.67520891 24.47855743 15.59765625 31.15625 C15.59701172 32.21070313 15.59636719 33.26515625 15.59570312 34.3515625 C15.51418819 48.80687763 15.51418819 48.80687763 12.72265625 52.21875 C10.41015625 53.15625 10.41015625 53.15625 7.22265625 52.40625 C4.41015625 51.15625 4.41015625 51.15625 3.41015625 50.15625 C3.26335584 47.9247325 3.18258581 45.68882158 3.12890625 43.453125 C3.10129211 42.44091888 3.10129211 42.44091888 3.07312012 41.40826416 C3.01421292 39.24101717 2.96152189 37.07368804 2.91015625 34.90625 C2.8586271 32.75310188 2.80560037 30.60005565 2.74719238 28.44708252 C2.69390487 26.48273209 2.64660964 24.51822185 2.59960938 22.55371094 C2.4360568 19.62072432 2.19835902 16.98269587 1.41015625 14.15625 C-1.35145997 12.13954342 -3.73055131 11.90547566 -7.08984375 11.96875 C-7.84265625 11.97519531 -8.59546875 11.98164062 -9.37109375 11.98828125 C-11.54974518 12.15321437 -13.49189186 12.56024094 -15.58984375 13.15625 C-17.12072059 17.94438457 -17.84451331 22.00713676 -17.8984375 27.078125 C-17.92357422 28.35042969 -17.94871094 29.62273437 -17.97460938 30.93359375 C-18.00111655 32.93046773 -18.02754033 34.92735314 -18.04614258 36.92431641 C-18.06775792 38.87159785 -18.10783419 40.81864692 -18.1484375 42.765625 C-18.16189209 43.92030273 -18.17534668 45.07498047 -18.18920898 46.26464844 C-18.58984375 49.15625 -18.58984375 49.15625 -19.92602539 51.03613281 C-22.49205497 52.76363739 -24.58654128 52.47575026 -27.58984375 52.15625 C-30.04292009 49.70317366 -29.84560041 49.03234362 -29.86450195 45.66235352 C-29.87403397 44.73121231 -29.88356598 43.80007111 -29.89338684 42.8407135 C-29.89247543 41.83237961 -29.89156403 40.82404572 -29.890625 39.78515625 C-29.89491013 38.75188705 -29.89919525 37.71861786 -29.90361023 36.65403748 C-29.90936058 34.46589898 -29.90984863 32.27774137 -29.90551758 30.08959961 C-29.90235984 26.73583441 -29.92580085 23.38295276 -29.95117188 20.02929688 C-29.95344495 17.90625112 -29.95414832 15.78320298 -29.953125 13.66015625 C-29.96233475 12.65384659 -29.97154449 11.64753693 -29.98103333 10.61073303 C-29.97480453 9.67643967 -29.96857574 8.7421463 -29.9621582 7.77954102 C-29.96278763 6.95728531 -29.96341705 6.1350296 -29.96406555 5.28785706 C-29.50011797 2.64516247 -28.70942406 1.75734582 -26.58984375 0.15625 C-23.69626214 -0.214722 -22.1594412 -0.19285811 -19.65234375 1.34375 C-18.97171875 1.611875 -18.29109375 1.88 -17.58984375 2.15625 C-16.70296875 1.7025 -15.81609375 1.24875 -14.90234375 0.78125 C-9.74748623 -1.74754803 -5.45385514 -1.77682158 0 0 Z " fill="#FDFEFE" transform="translate(58.58984375,60.84375)"/>
<path d="M0 0 C1.7421875 1.16796875 1.7421875 1.16796875 3.7421875 4.16796875 C3.4180506 7.49037199 3.13442447 8.77573178 0.7421875 11.16796875 C-5.58039315 11.50667843 -5.58039315 11.50667843 -8.2578125 10.16796875 C-9.79805246 10.09846334 -11.34116238 10.08344518 -12.8828125 10.10546875 C-13.70007813 10.11449219 -14.51734375 10.12351562 -15.359375 10.1328125 C-15.98585937 10.14441406 -16.61234375 10.15601562 -17.2578125 10.16796875 C-17.5878125 12.14796875 -17.9178125 14.12796875 -18.2578125 16.16796875 C-17.4328125 16.43609375 -16.6078125 16.70421875 -15.7578125 16.98046875 C-14.6028125 17.37234375 -13.4478125 17.76421875 -12.2578125 18.16796875 C-11.608125 18.35101563 -10.9584375 18.5340625 -10.2890625 18.72265625 C-4.70176997 20.46331277 -1.4697669 23.27779597 1.7421875 28.16796875 C3.38699366 33.10238724 3.3323918 37.43207374 1.6796875 42.29296875 C-1.30764948 46.72579137 -4.32746765 50.28296527 -9.5859375 51.87109375 C-16.64565296 52.89231045 -23.46053757 51.55520204 -29.51953125 47.74609375 C-31.2578125 46.16796875 -31.2578125 46.16796875 -31.6953125 43.16796875 C-31.2578125 40.16796875 -31.2578125 40.16796875 -30.1953125 38.23046875 C-27.10467114 36.53560091 -24.59441066 37.4399837 -21.2578125 38.16796875 C-20.5978125 38.49796875 -19.9378125 38.82796875 -19.2578125 39.16796875 C-16.56767911 39.35501279 -13.96095073 39.25378266 -11.2578125 39.16796875 C-9.90162751 38.0426277 -9.90162751 38.0426277 -10.1953125 35.10546875 C-10.2159375 34.13609375 -10.2365625 33.16671875 -10.2578125 32.16796875 C-10.98226562 31.9978125 -11.70671875 31.82765625 -12.453125 31.65234375 C-24.86051214 28.54222537 -24.86051214 28.54222537 -28.50390625 23.4140625 C-31.26794573 18.52678162 -31.96405651 14.72964031 -31.2578125 9.16796875 C-29.42460301 4.35456842 -26.53495131 1.01939463 -22.2578125 -1.83203125 C-14.72644262 -4.34248788 -7.0600806 -3.37487369 0 0 Z " fill="#FCFDFD" transform="translate(175.2578125,62.83203125)"/>
<path d="M0 0 C1.9375 1.0625 1.9375 1.0625 3 3 C3.3125 6.5625 3.3125 6.5625 3 10 C2.34 10.66 1.68 11.32 1 12 C1.36276645 14.82957829 2.09694764 17.29084291 3 20 C3.10039205 21.40556506 3.14822122 22.81527865 3.16113281 24.22436523 C3.17074036 25.07212021 3.1803479 25.91987518 3.19024658 26.7933197 C3.19449646 27.70586014 3.19874634 28.61840057 3.203125 29.55859375 C3.20882507 30.49929214 3.21452515 31.43999054 3.22039795 32.40919495 C3.22984305 34.39884314 3.23637999 36.38850695 3.24023438 38.37817383 C3.24995153 41.42231444 3.28098421 44.46578314 3.3125 47.50976562 C3.31902908 49.44270432 3.32427993 51.37564785 3.328125 53.30859375 C3.3404718 54.21910995 3.3528186 55.12962616 3.36553955 56.06773376 C3.34343275 62.33571551 3.34343275 62.33571551 1.66699219 65.57836914 C0 67 0 67 -3 67.4375 C-6.33147945 66.95165925 -7.0150829 66.60282751 -9 64 C-9.38095093 61.92654419 -9.38095093 61.92654419 -9.38818359 59.51611328 C-9.39764008 58.61152374 -9.40709656 57.7069342 -9.4168396 56.77493286 C-9.41076691 55.79990814 -9.40469421 54.82488342 -9.3984375 53.8203125 C-9.40130768 52.81539764 -9.40417786 51.81048279 -9.40713501 50.77511597 C-9.40917724 48.64841143 -9.40363632 46.52168818 -9.39111328 44.39501953 C-9.37509573 41.14442707 -9.3909397 37.89508437 -9.41015625 34.64453125 C-9.40817319 32.57812226 -9.40432822 30.51171405 -9.3984375 28.4453125 C-9.40451019 27.47433624 -9.41058289 26.50335999 -9.4168396 25.50296021 C-9.3650579 20.51509768 -9.24636078 17.06520451 -6 13 C-6.66 12.46375 -7.32 11.9275 -8 11.375 C-10 9 -10 9 -10.4375 5.9375 C-10 3 -10 3 -8.9375 1.125 C-5.8930714 -0.64273274 -3.4368988 -0.36823916 0 0 Z " fill="#FCFEFE" transform="translate(90,46)"/>
<path d="M0 0 C1.98 0 3.96 0 6 0 C6 1.32 6 2.64 6 4 C4.35 4 2.7 4 1 4 C0.67 2.68 0.34 1.36 0 0 Z " fill="#DFE2E4" transform="translate(84,58)"/>
</svg>
